<?xml version="1.0" encoding="iso-8859-1"?>
<!-- Generator: Adobe Illustrator 16.0.0, SVG Export Plug-In . SVG Version: 6.00 Build 0)  -->
<!DOCTYPE svg PUBLIC "-//W3C//DTD SVG 1.1//EN" "http://www.w3.org/Graphics/SVG/1.1/DTD/svg11.dtd">
<svg xmlns="http://www.w3.org/2000/svg" xmlns:xlink="http://www.w3.org/1999/xlink" version="1.1" id="Capa_1" x="0px" y="0px" width="512px" height="512px" viewBox="0 0 383.415 383.415" style="enable-background:new 0 0 383.415 383.415;" xml:space="preserve">
<g>
	<path d="M334.938,154.688c-5.508-4.896-12.853,0-11.628,6.732c2.448,12.24-0.612,24.48-0.612,36.72   c-22.032,0.612-44.063,2.448-66.096,3.06c9.792-23.868,8.567-52.02-10.404-72.216c-26.315-28.152-74.664-34.272-110.16-23.256   c-43.452,14.076-48.348,57.528-28.764,93.636c0.612,1.225,1.224,1.836,2.448,2.448c0.612,0.612,1.224,1.836,1.836,2.448   c1.836,3.06,4.284,6.12,6.732,7.956c-36.72,3.672-80.172-5.509-108.936-11.017c-4.284-0.611-7.344,1.836-7.956,6.12   c-2.448,18.36-1.836,36.108,3.06,53.856c1.224,4.284,7.344,2.448,6.732-1.836c0-1.225,0-1.836-0.612-3.061   c59.364,6.12,133.416,20.196,190.944-3.672c38.556,7.344,80.172-4.284,118.116-12.852c-1.836,12.239-0.612,24.479-0.612,36.72   c0,4.896,5.508,7.956,9.792,5.508c23.256-12.24,52.632-28.764,54.468-58.14C385.734,197.528,352.687,171.212,334.938,154.688z    M191.73,240.98c-1.224,0-2.448,0-3.06-0.612c-3.06-0.611-4.896,1.225-5.508,3.672c-55.692,16.524-116.28,1.225-173.196,4.896   c-0.612-11.016,0-22.032,2.448-33.66c41.616,7.956,85.068,13.464,127.296,5.508c26.928-4.896,61.2-28.152,53.856-59.976   c-9.18-36.72-100.98,0.612-51.408,47.124c-3.672,1.224-7.956,2.448-12.24,3.06c0-0.611-0.612-1.224-0.612-1.836   c-3.06-3.672-6.12-6.731-9.792-9.792c1.224-1.836,1.836-4.284,0.612-7.344c-15.912-35.496-9.792-66.708,31.212-75.888   c29.988-6.732,66.708,1.836,87.516,24.48C272.515,178.557,226.614,226.292,191.73,240.98z M159.906,160.809   c30.6-9.792,18.36,25.704,3.672,36.72c-3.06,2.448-7.344,4.896-11.016,6.732c0-1.225,0-1.836-0.612-3.061   C140.935,184.676,137.262,168.152,159.906,160.809z M331.267,267.297c-1.225-9.792-2.448-19.584-1.225-29.376   c4.896-3.061,1.225-12.853-5.508-11.017c-33.66,6.732-67.932,15.912-102.204,16.524c1.225-1.225,3.061-1.836,4.284-3.061   c9.18-6.731,17.748-15.3,23.868-25.092c0.612,0,1.836,0.612,2.448,0.612c25.704-0.612,51.407-4.284,77.724-4.896   c3.06,0,7.344-3.06,6.732-6.731c-1.225-9.792,0-19.584,0.611-28.764c12.853,11.628,25.092,25.092,31.212,40.392   C377.778,239.145,350.851,256.28,331.267,267.297z" fill="#FFFFFF"/>
</g>
<g>
</g>
<g>
</g>
<g>
</g>
<g>
</g>
<g>
</g>
<g>
</g>
<g>
</g>
<g>
</g>
<g>
</g>
<g>
</g>
<g>
</g>
<g>
</g>
<g>
</g>
<g>
</g>
<g>
</g>
</svg>
